# xmcd
#
# Track frame offsets:
# 150
# 14971
# 33070
# 48845
# 65276
# 83804
# 101975
# 116962
# 135768
# 141763
# 156075
# 170556
#
# Disc length: 2501 seconds
#
#
# Revision: 0
# Processed by: cddbd v1.5PL3 Copyright (c) Steve Scherf et al.
# Submitted via: FreeRIP 2.53 
#
DISCID=9e09c30c
DTITLE=Tennison, Chalee - This Woman's Heart
DYEAR=1900
DGENRE=Country
TTITLE0=Yes I Was
TTITLE1=Somebody Save Me
TTITLE2=I'm Healing
TTITLE3=Makin' Up With You
TTITLE4=This Woman's Heart
TTITLE5=Go Back
TTITLE6=Break It Even
TTITLE7=We Don't Have To Pray
TTITLE8=What I Tell Myself
TTITLE9=You Can't Say That
TTITLE10=Ain't
TTITLE11=Under Your Skin
EXTD=
EXTT0=
EXTT1=
EXTT2=
EXTT3=
EXTT4=
EXTT5=
EXTT6=
EXTT7=
EXTT8=
EXTT9=
EXTT10=
EXTT11=
PLAYORDER=
